<svg width="431" height="431" viewBox="0 0 431 431" fill="none" xmlns="http://www.w3.org/2000/svg">
<rect width="431" height="431" rx="77" fill="black"/>
<path d="M80.5635 290V254.456H98.0781V161.525H80.5635V125.98H169.167V161.525H151.652V254.456H169.167V290H80.5635ZM181.324 290V254.456H197.809V161.525H181.324V125.98H262.613V161.525H250.146V200.057L290.533 161.525H278.067V125.98H345.859V161.525H331.95L291.151 199.13H295.066C307.567 199.13 316.874 202.186 322.987 208.299C329.1 214.344 332.294 223.238 332.568 234.983L332.774 243.535C332.912 247.175 333.702 249.922 335.144 251.777C336.655 253.563 339.196 254.456 342.768 254.456H353.689V290H317.835C304.717 290 294.998 286.978 288.679 280.934C282.428 274.821 279.235 265.892 279.097 254.146L278.891 240.444C278.685 229.454 273.602 223.959 263.643 223.959H250.146V254.456H264.055V290H181.324Z" fill="#F34F29"/>
</svg>
